HIERARCHY
ROOT Root
{
  OFFSET 0.0 0.0 0.0
  CHANNELS 6 Xposition Yposition Zposition Zrotation Yrotation Xrotation
  JOINT Hips
  {
    OFFSET 0.0 100.0 0.0
    CHANNELS 6 Xposition Yposition Zposition Zrotation Yrotation Xrotation
    JOINT Spine1
    {
      OFFSET 5.003913 -0.037094 -0.013727
      CHANNELS 3 Zrotation Yrotation Xrotation
      JOINT Spine2
      {
        OFFSET 7.125363 -1e-06 0.0
        CHANNELS 3 Zrotation Yrotation Xrotation
        JOINT Chest
        {
          OFFSET 7.594027 1e-06 0.0
          CHANNELS 3 Zrotation Yrotation Xrotation
          JOINT Neck1
          {
            OFFSET 26.313086 -0.460272 -0.181672
            CHANNELS 3 Zrotation Yrotation Xrotation
            JOINT Neck2
            {
              OFFSET 8.045911 0.0 0.0
              CHANNELS 3 Zrotation Yrotation Xrotation
              JOINT Head
              {
                OFFSET 6.432774 0.0 0.0
                CHANNELS 3 Zrotation Yrotation Xrotation
                JOINT HeadEnd
                {
                  OFFSET 16.169773 0.06451 0.00362
                  CHANNELS 3 Zrotation Yrotation Xrotation
                }
                JOINT Jaw
                {
                  OFFSET 0.108741 3.12938 0.002639
                  CHANNELS 3 Zrotation Yrotation Xrotation
                }
                JOINT LeftEye
                {
                  OFFSET 4.45173 8.166359 3.206392
                  CHANNELS 3 Zrotation Yrotation Xrotation
                }
                JOINT RightEye
                {
                  OFFSET 4.436895 8.135758 -3.222429
                  CHANNELS 3 Zrotation Yrotation Xrotation
                }
              }
            }
          }
          JOINT LeftShoulder
          {
            OFFSET 23.218927 5.195579 1.621656
            CHANNELS 3 Zrotation Yrotation Xrotation
            JOINT LeftArm
            {
              OFFSET 15.902118 2e-06 -2e-06
              CHANNELS 3 Zrotation Yrotation Xrotation
              JOINT LeftForeArm
              {
                OFFSET 28.739307 0.0 -1e-06
                CHANNELS 3 Zrotation Yrotation Xrotation
                JOINT LeftHand
                {
                  OFFSET 27.093981 -4e-06 0.0
                  CHANNELS 3 Zrotation Yrotation Xrotation
                  JOINT LeftHandThumb1
                  {
                    OFFSET 2.276781 3.380274 0.83384
                    CHANNELS 3 Zrotation Yrotation Xrotation
                    JOINT LeftHandThumb2
                    {
                      OFFSET 4.705309 -1e-06 -1e-06
                      CHANNELS 3 Zrotation Yrotation Xrotation
                      JOINT LeftHandThumb3
                      {
                        OFFSET 2.798515 0.0 3e-06
                        CHANNELS 3 Zrotation Yrotation Xrotation
                        JOINT LeftHandThumbEnd
                        {
                          OFFSET 3.180793 4e-06 -4e-06
                          CHANNELS 3 Zrotation Yrotation Xrotation
                        }
                      }
                    }
                  }
                  JOINT LeftHandIndex1
                  {
                    OFFSET 3.247786 2.352677 0.137192
                    CHANNELS 3 Zrotation Yrotation Xrotation
                    JOINT LeftHandIndex2
                    {
                      OFFSET 6.367095 1e-06 0.0
                      CHANNELS 3 Zrotation Yrotation Xrotation
                      JOINT LeftHandIndex3
                      {
                        OFFSET 3.662364 0.0 0.0
                        CHANNELS 3 Zrotation Yrotation Xrotation
                        JOINT LeftHandIndex4
                        {
                          OFFSET 2.329242 4e-06 -4e-06
                          CHANNELS 3 Zrotation Yrotation Xrotation
                          JOINT LeftHandIndexEnd
                          {
                            OFFSET 2.767823 1e-06 0.0
                            CHANNELS 3 Zrotation Yrotation Xrotation
                          }
                        }
                      }
                    }
                  }
                  JOINT LeftHandMiddle1
                  {
                    OFFSET 3.163612 0.945023 -0.406112
                    CHANNELS 3 Zrotation Yrotation Xrotation
                    JOINT LeftHandMiddle2
                    {
                      OFFSET 6.276789 3e-06 0.0
                      CHANNELS 3 Zrotation Yrotation Xrotation
                      JOINT LeftHandMiddle3
                      {
                        OFFSET 4.35652 -1e-06 4e-06
                        CHANNELS 3 Zrotation Yrotation Xrotation
                        JOINT LeftHandMiddle4
                        {
                          OFFSET 2.996877 0.0 8e-06
                          CHANNELS 3 Zrotation Yrotation Xrotation
                          JOINT LeftHandMiddleEnd
                          {
                            OFFSET 2.323256 3e-06 -4e-06
                            CHANNELS 3 Zrotation Yrotation Xrotation
                          }
                        }
                      }
                    }
                  }
                  JOINT LeftHandRing1
                  {
                    OFFSET 2.882606 -0.309162 0.107445
                    CHANNELS 3 Zrotation Yrotation Xrotation
                    JOINT LeftHandRing2
                    {
                      OFFSET 6.033198 0.0 4e-06
                      CHANNELS 3 Zrotation Yrotation Xrotation
                      JOINT LeftHandRing3
                      {
                        OFFSET 4.350578 3e-06 0.0
                        CHANNELS 3 Zrotation Yrotation Xrotation
                        JOINT LeftHandRing4
                        {
                          OFFSET 2.651321 2e-06 -7e-06
                          CHANNELS 3 Zrotation Yrotation Xrotation
                          JOINT LeftHandRingEnd
                          {
                            OFFSET 1.937663 1e-06 -4e-06
                            CHANNELS 3 Zrotation Yrotation Xrotation
                          }
                        }
                      }
                    }
                  }
                  JOINT LeftHandPinky1
                  {
                    OFFSET 2.865315 -1.525436 0.575687
                    CHANNELS 3 Zrotation Yrotation Xrotation
                    JOINT LeftHandPinky2
                    {
                      OFFSET 5.54936 1e-06 -8e-06
                      CHANNELS 3 Zrotation Yrotation Xrotation
                      JOINT LeftHandPinky3
                      {
                        OFFSET 3.070974 0.0 -4e-06
                        CHANNELS 3 Zrotation Yrotation Xrotation
                        JOINT LeftHandPinky4
                        {
                          OFFSET 1.549672 1e-06 0.0
                          CHANNELS 3 Zrotation Yrotation Xrotation
                          JOINT LeftHandPinkyEnd
                          {
                            OFFSET 1.952123 0.0 0.0
                            CHANNELS 3 Zrotation Yrotation Xrotation
                          }
                        }
                      }
                    }
                  }
                }
              }
            }
          }
          JOINT RightShoulder
          {
            OFFSET 23.161716 5.296122 -1.380114
            CHANNELS 3 Zrotation Yrotation Xrotation
            JOINT RightArm
            {
              OFFSET -16.027195 -2e-06 1.1e-05
              CHANNELS 3 Zrotation Yrotation Xrotation
              JOINT RightForeArm
              {
                OFFSET -28.736639 4e-06 2e-06
                CHANNELS 3 Zrotation Yrotation Xrotation
                JOINT RightHand
                {
                  OFFSET -27.133619 6e-06 0.0
                  CHANNELS 3 Zrotation Yrotation Xrotation
                  JOINT RightHandThumb1
                  {
                    OFFSET -2.274328 -3.351035 -0.83067
                    CHANNELS 3 Zrotation Yrotation Xrotation
                    JOINT RightHandThumb2
                    {
                      OFFSET -4.703594 -3e-06 2e-06
                      CHANNELS 3 Zrotation Yrotation Xrotation
                      JOINT RightHandThumb3
                      {
                        OFFSET -2.794935 -4e-06 -3e-06
                        CHANNELS 3 Zrotation Yrotation Xrotation
                        JOINT RightHandThumbEnd
                        {
                          OFFSET -3.183852 4e-06 1e-06
                          CHANNELS 3 Zrotation Yrotation Xrotation
                        }
                      }
                    }
                  }
                  JOINT RightHandIndex1
                  {
                    OFFSET -3.253496 -2.33755 -0.127667
                    CHANNELS 3 Zrotation Yrotation Xrotation
                    JOINT RightHandIndex2
                    {
                      OFFSET -6.344434 0.0 0.0
                      CHANNELS 3 Zrotation Yrotation Xrotation
                      JOINT RightHandIndex3
                      {
                        OFFSET -3.654871 0.0 -8e-06
                        CHANNELS 3 Zrotation Yrotation Xrotation
                        JOINT RightHandIndex4
                        {
                          OFFSET -2.327586 -1e-06 0.0
                          CHANNELS 3 Zrotation Yrotation Xrotation
                          JOINT RightHandIndexEnd
                          {
                            OFFSET -2.770001 3e-06 8e-06
                            CHANNELS 3 Zrotation Yrotation Xrotation
                          }
                        }
                      }
                    }
                  }
                  JOINT RightHandMiddle1
                  {
                    OFFSET -3.168223 -0.944764 0.411762
                    CHANNELS 3 Zrotation Yrotation Xrotation
                    JOINT RightHandMiddle2
                    {
                      OFFSET -6.266691 -1e-06 -4e-06
                      CHANNELS 3 Zrotation Yrotation Xrotation
                      JOINT RightHandMiddle3
                      {
                        OFFSET -4.348901 0.0 0.0
                        CHANNELS 3 Zrotation Yrotation Xrotation
                        JOINT RightHandMiddle4
                        {
                          OFFSET -3.00024 2e-06 -4e-06
                          CHANNELS 3 Zrotation Yrotation Xrotation
                          JOINT RightHandMiddleEnd
                          {
                            OFFSET -2.321477 -4e-06 -4e-06
                            CHANNELS 3 Zrotation Yrotation Xrotation
                          }
                        }
                      }
                    }
                  }
                  JOINT RightHandRing1
                  {
                    OFFSET -2.885654 0.293261 -0.119232
                    CHANNELS 3 Zrotation Yrotation Xrotation
                    JOINT RightHandRing2
                    {
                      OFFSET -6.032835 -1e-06 -4e-06
                      CHANNELS 3 Zrotation Yrotation Xrotation
                      JOINT RightHandRing3
                      {
                        OFFSET -4.33881 0.0 -4e-06
                        CHANNELS 3 Zrotation Yrotation Xrotation
                        JOINT RightHandRing4
                        {
                          OFFSET -2.654903 -4e-06 -4e-06
                          CHANNELS 3 Zrotation Yrotation Xrotation
                          JOINT RightHandRingEnd
                          {
                            OFFSET -1.935122 0.0 4e-06
                            CHANNELS 3 Zrotation Yrotation Xrotation
                          }
                        }
                      }
                    }
                  }
                  JOINT RightHandPinky1
                  {
                    OFFSET -2.866241 1.503904 -0.60527
                    CHANNELS 3 Zrotation Yrotation Xrotation
                    JOINT RightHandPinky2
                    {
                      OFFSET -5.553177 -2e-06 0.0
                      CHANNELS 3 Zrotation Yrotation Xrotation
                      JOINT RightHandPinky3
                      {
                        OFFSET -3.062664 -1e-06 -4e-06
                        CHANNELS 3 Zrotation Yrotation Xrotation
                        JOINT RightHandPinky4
                        {
                          OFFSET -1.546529 2e-06 4e-06
                          CHANNELS 3 Zrotation Yrotation Xrotation
                          JOINT RightHandPinkyEnd
                          {
                            OFFSET -1.952341 0.0 -4e-06
                            CHANNELS 3 Zrotation Yrotation Xrotation
                          }
                        }
                      }
                    }
                  }
                }
              }
            }
          }
        }
      }
    }
    JOINT LeftLeg
    {
      OFFSET -8.443107 2.567604 10.043214
      CHANNELS 3 Zrotation Yrotation Xrotation
      JOINT LeftShin
      {
        OFFSET 43.229198 1e-06 -1e-06
        CHANNELS 3 Zrotation Yrotation Xrotation
        JOINT LeftFoot
        {
          OFFSET 42.298611 1e-06 1e-06
          CHANNELS 3 Zrotation Yrotation Xrotation
          JOINT LeftToeBase
          {
            OFFSET 14.165858 1e-06 0.0
            CHANNELS 3 Zrotation Yrotation Xrotation
            JOINT LeftToeEnd
            {
              OFFSET 6.7141 -0.234461 0.0
              CHANNELS 3 Zrotation Yrotation Xrotation
            }
          }
        }
      }
    }
    JOINT RightLeg
    {
      OFFSET -8.303923 2.592729 -10.047278
      CHANNELS 3 Zrotation Yrotation Xrotation
      JOINT RightShin
      {
        OFFSET -43.369682 0.0 1e-06
        CHANNELS 3 Zrotation Yrotation Xrotation
        JOINT RightFoot
        {
          OFFSET -42.260784 4e-06 2e-06
          CHANNELS 3 Zrotation Yrotation Xrotation
          JOINT RightToeBase
          {
            OFFSET -14.222245 -2e-06 -1e-06
            CHANNELS 3 Zrotation Yrotation Xrotation
            JOINT RightToeEnd
            {
              OFFSET -6.660062 0.232574 -2e-06
              CHANNELS 3 Zrotation Yrotation Xrotation
            }
          }
        }
      }
    }
  }
}
MOTION
Frames: 4
Frame Time: 0.03333333333333333
0.0 0.0 0.0 0.0 -0.0 0.0 -1.074546 99.517159 -1.225107 87.022354 1.947681 90.384193 0.943016 1.917756 -0.29348 -10.306411 -0.437898 -0.506819 14.449016 0.356282 -2.169151 9.397635 10.232905 1.944382 -2.212224 -0.596274 2.350627 -29.191963 2.889479 0.471816 6e-06 -1e-06 -0.0 0.032772 -0.009531 0.06205 0.136337 0.01329 0.059265 0.112784 -0.024707 0.062957 -111.336296 -76.072632 126.233467 10.287341 -44.113209 47.163998 50.966568 -0.040774 0.524189 -6.711085 0.300065 4.823032 17.636629 -26.322729 52.41119 -19.466661 -14.395594 29.410389 -0.0 -8.774821 -2e-06 16.550829 -18.065605 6.0896 -0.609777 -1.795653 -3.88933 -4.807088 -11.046811 -2.937849 4e-06 -20.976019 -1e-06 -5.019969 -25.033556 -4.03188 8e-06 1e-06 0.0 -10.634534 -5.686971 -3.565589 10.573274 -17.922951 -3.113903 3e-06 -13.821209 -1e-06 -0.501776 -31.181498 -4.027017 -12.252607 -60.882225 7.954381 -13.982714 -7.150199 -2.875046 13.77273 -8.401491 -3.21824 0.347734 -34.211552 0.771653 -0.963029 -17.73337 2.621019 -1e-06 0.0 0.0 -17.346418 -20.095219 -4.201786 21.757557 -1.638375 3.86643 2e-06 -6.338824 0.0 -1.697589 -22.591745 -6.194006 -1e-06 -1e-06 -1e-06 54.640316 -75.976006 143.33905 13.575561 -35.142815 71.66935 71.075768 1.314685 -2.008177 -20.186337 -15.958053 -12.277307 22.182117 -20.375898 49.933327 -16.701811 -16.743526 28.476528 1e-06 -12.690601 -1e-06 15.723472 -17.714258 2.823632 -0.105919 -1.513858 -4.275883 -5.039042 -5.612871 -2.953557 5e-06 -11.020524 -4e-06 -6.111301 -15.895338 -3.840471 2e-06 1e-06 1e-06 -10.283372 -5.680287 -4.341836 11.028297 -11.302404 -2.372638 -1.384273 -14.238581 -6.320118 -0.62544 -26.924191 -3.827598 -4.079355 -49.670849 -4.254223 -13.708527 -7.363477 -3.720941 18.141153 -14.052739 -3.242676 7e-06 -18.78727 -1e-06 -0.429714 -8.456044 2.555504 0.0 1e-06 0.0 -15.923538 -20.094484 -5.473584 30.419218 -7.190826 1.735925 2e-06 -8.162925 -0.0 -1.8619 -22.861469 -6.167941 -4e-06 -3e-06 -1e-06 -179.902542 -14.11115 -22.881872 15.155635 0.023825 0.259293 -77.657997 -1.703422 -11.963111 -4.936546 1.513691 2.150425 -0.999999 -1e-06 0.0 -1.106189 0.342666 -8.529969 14.168037 0.016591 -0.060172 -79.661354 -4.068657 -6.175208 -4.156311 0.778485 1.704084 -1.000002 0.0 -0.0 
0.0 0.0 0.0 0.0 -0.0 0.0 -1.056728 99.541939 -1.197697 86.997459 1.943352 90.485146 0.932264 1.911418 -0.290123 -10.318174 -0.414274 -0.452257 14.4924 0.35435 -2.212676 9.495054 10.351589 1.987626 -2.204475 -0.595777 2.371089 -29.117025 2.748462 0.464379 7e-06 -1e-06 0.0 0.031323 -0.008672 0.078369 0.157697 0.008467 0.07767 0.128226 -0.017798 0.076052 -111.457954 -76.041512 126.520721 10.645556 -44.167236 46.639793 50.79472 -0.184315 0.40697 -6.43688 0.446857 4.967793 17.636627 -26.322733 52.411205 -19.46666 -14.395597 29.410395 -0.0 -8.774822 -3e-06 16.482855 -18.007647 6.081931 -0.609776 -1.795654 -3.889329 -4.807088 -11.046809 -2.93785 4e-06 -20.976015 -1e-06 -5.01997 -25.033556 -4.031881 7e-06 1e-06 0.0 -10.634533 -5.686969 -3.565586 10.573272 -17.922951 -3.113901 4e-06 -13.821209 -1e-06 -0.501777 -31.181498 -4.027014 -12.095799 -60.713669 7.867742 -13.982712 -7.150197 -2.875041 13.772727 -8.401491 -3.218242 0.347735 -34.211544 0.771654 -0.963032 -17.733366 2.621022 -0.0 -1e-06 0.0 -17.346416 -20.095217 -4.201782 21.757559 -1.638375 3.866427 3e-06 -6.338824 -0.0 -1.697589 -22.59174 -6.194004 -0.0 -3e-06 -2e-06 54.836601 -75.899696 143.36087 13.440718 -35.210869 71.713989 70.843048 1.301048 -1.943125 -19.893148 -16.449858 -12.09559 22.182108 -20.375895 49.933327 -16.701811 -16.74353 28.476532 -1e-06 -12.690599 -0.0 15.662402 -17.766842 2.896283 -0.105919 -1.513856 -4.275882 -5.039042 -5.612871 -2.953557 5e-06 -11.020525 -5e-06 -6.111298 -15.895332 -3.840471 1e-06 1e-06 1e-06 -10.28337 -5.680288 -4.34184 11.028296 -11.302404 -2.372635 -1.38427 -14.238582 -6.320121 -0.625437 -26.924191 -3.827602 -4.136232 -49.660305 -4.210122 -13.708524 -7.363478 -3.720938 18.14115 -14.052739 -3.242676 6e-06 -18.78727 -1e-06 -0.42971 -8.456041 2.555503 1e-06 -0.0 0.0 -15.923532 -20.094482 -5.473587 30.419207 -7.190827 1.735923 0.0 -8.162927 -0.0 -1.861902 -22.861467 -6.167941 -3e-06 -2e-06 -1e-06 -179.840393 -14.088587 -22.805244 14.973122 0.025788 0.304991 -77.60202 -1.619703 -11.982208 -4.960586 1.505589 2.147873 -0.999999 1e-06 -0.0 -0.891368 0.408081 -8.472322 13.769257 -0.000227 -0.065172 -79.544769 -4.175116 -6.205886 -4.122102 0.761409 1.703023 -1.000002 -0.0 -0.0 
0.0 0.0 0.0 0.0 -0.0 0.0 -1.054388 99.550125 -1.176995 86.986664 1.962855 90.61525 0.89483 1.894993 -0.277442 -10.353714 -0.400723 -0.453268 14.621713 0.352621 -2.231814 9.681848 10.501845 2.064944 -2.253043 -0.610202 2.263261 -28.949818 2.588575 0.414449 7e-06 -0.0 0.0 0.031124 -0.010827 0.087937 0.158514 0.000542 0.089727 0.125194 -0.014132 0.082212 -111.835266 -75.981262 127.03405 10.960578 -44.152721 46.164829 50.642502 -0.279161 0.342249 -6.154176 0.684946 4.893226 17.636625 -26.322731 52.41119 -19.466658 -14.395597 29.410389 -1e-06 -8.774821 -2e-06 16.480381 -17.992371 6.053082 -0.609776 -1.795653 -3.889328 -4.807088 -11.046809 -2.93785 3e-06 -20.976015 -2e-06 -5.01997 -25.033552 -4.031878 9e-06 -1e-06 -1e-06 -10.634533 -5.686969 -3.565587 10.573271 -17.922947 -3.113901 3e-06 -13.821204 -0.0 -0.501779 -31.181498 -4.027012 -12.019124 -60.553345 7.779686 -13.982712 -7.150198 -2.875045 13.772727 -8.401489 -3.218239 0.347733 -34.211544 0.771654 -0.963034 -17.733366 2.621024 -0.0 -1e-06 0.0 -17.346413 -20.095211 -4.20178 21.757555 -1.638375 3.866426 2e-06 -6.338822 0.0 -1.697587 -22.591738 -6.194005 -2e-06 -2e-06 -1e-06 54.716862 -75.785278 143.626251 13.243022 -35.154713 71.646378 70.711334 1.183151 -1.834116 -19.719585 -16.734255 -11.910127 22.182116 -20.375898 49.933327 -16.701815 -16.743525 28.476534 -1e-06 -12.6906 -2e-06 15.62172 -17.753092 2.952004 -0.10592 -1.513856 -4.275883 -5.039042 -5.612875 -2.953555 7e-06 -11.020525 -4e-06 -6.111298 -15.895334 -3.840472 1e-06 1e-06 -1e-06 -10.283371 -5.68029 -4.341841 11.028298 -11.302406 -2.372635 -1.384271 -14.238585 -6.320121 -0.625436 -26.924198 -3.827603 -4.157121 -49.534145 -4.193805 -13.708524 -7.363478 -3.720942 18.141151 -14.052742 -3.242678 7e-06 -18.787273 -1e-06 -0.429713 -8.456047 2.555504 -1e-06 0.0 0.0 -15.923534 -20.094486 -5.473584 30.41921 -7.190826 1.735924 2e-06 -8.162928 -2e-06 -1.8619 -22.861469 -6.167942 -4e-06 -2e-06 -1e-06 -179.827072 -14.084055 -22.703526 14.916887 0.018374 0.332578 -77.600761 -1.49471 -11.950854 -4.924775 1.490524 2.147121 -0.999999 0.0 0.0 -0.753095 0.450967 -8.402018 13.579906 -0.004624 -0.074733 -79.403511 -4.34854 -6.274559 -4.080122 0.763711 1.705563 -1.000002 0.0 -0.0 
0.0 0.0 0.0 0.0 -0.0 0.0 -1.06335 99.542854 -1.163396 86.980217 2.012692 90.745819 0.867925 1.872475 -0.259115 -10.393598 -0.388954 -0.463675 14.768268 0.357886 -2.235405 9.947668 10.660735 2.132612 -2.3101 -0.637746 2.12572 -28.76848 2.442421 0.357665 5e-06 -1e-06 0.0 0.030273 -0.014067 0.087916 0.142327 -0.007159 0.091121 0.10785 -0.012987 0.080265 -112.391457 -75.889786 127.699524 11.321841 -44.114643 45.692024 50.3909 -0.353618 0.307935 -5.853024 1.019135 4.871173 17.636635 -26.322729 52.411201 -19.466663 -14.395597 29.410395 -1e-06 -8.774821 -2e-06 16.477753 -17.965061 6.022046 -0.609777 -1.795654 -3.889329 -4.807088 -11.04681 -2.93785 5e-06 -20.976017 -3e-06 -5.019967 -25.033558 -4.031882 7e-06 1e-06 0.0 -10.634535 -5.686972 -3.565591 10.573277 -17.922953 -3.113904 4e-06 -13.821209 -2e-06 -0.501776 -31.181505 -4.027013 -11.963408 -60.424534 7.731677 -13.982715 -7.150198 -2.875043 13.772731 -8.401493 -3.21824 0.347736 -34.211555 0.771654 -0.963029 -17.73337 2.621021 1e-06 1e-06 1e-06 -17.346418 -20.095219 -4.201787 21.757561 -1.638376 3.866428 2e-06 -6.338823 -0.0 -1.697587 -22.591751 -6.194011 0.0 -3e-06 -1e-06 54.439663 -75.639473 143.99585 13.08002 -35.013985 71.584587 70.618103 1.085662 -1.734027 -19.584061 -16.843386 -11.865832 22.182135 -20.375902 49.933327 -16.701818 -16.74353 28.476536 -1e-06 -12.690605 -4e-06 15.569872 -17.704912 2.996331 -0.10592 -1.513856 -4.275882 -5.039042 -5.612872 -2.953558 7e-06 -11.020525 -4e-06 -6.111298 -15.895338 -3.840471 -0.0 1e-06 1e-06 -10.283373 -5.68029 -4.341841 11.028299 -11.302407 -2.372633 -1.384269 -14.238584 -6.320121 -0.62544 -26.924198 -3.827598 -4.158693 -49.347172 -4.180318 -13.708529 -7.363477 -3.720942 18.141155 -14.05274 -3.242676 7e-06 -18.787275 -1e-06 -0.429711 -8.456047 2.555506 0.0 -0.0 0.0 -15.923536 -20.094486 -5.473589 30.419218 -7.190833 1.735928 1e-06 -8.16293 -0.0 -1.861902 -22.861479 -6.167943 -4e-06 -3e-06 -1e-06 -179.846146 -14.10289 -22.55015 14.985999 0.009517 0.342124 -77.644142 -1.449195 -11.928112 -4.896781 1.483977 2.147171 -0.999999 1e-06 0.0 -0.67904 0.481827 -8.335671 13.58164 -0.005186 -0.087432 -79.428719 -4.529237 -6.322263 -4.080482 0.764355 1.705311 -1.000002 -0.0 -0.0 
